<svg width="121" height="54" viewBox="0 0 121 54" fill="none" xmlns="http://www.w3.org/2000/svg">
<mask id="mask0_424_13" style="mask-type:alpha" maskUnits="userSpaceOnUse" x="1" y="1" width="55" height="52">
<path d="M1.94465 24.7776C0.831241 26.0501 0.831241 27.9501 1.94465 29.2225L21.9318 52.0649C22.8282 53.0894 24.4219 53.0894 25.3183 52.0649L27.4707 49.6051L29.8409 52.1907C30.7327 53.1636 32.2664 53.1636 33.1581 52.1907L54.1591 29.2806C55.3419 27.9903 55.3419 26.0098 54.1591 24.7195L33.1581 1.80938C32.2664 0.836552 30.7327 0.836552 29.8409 1.80938L27.4707 4.39505L25.3183 1.9352C24.4219 0.910712 22.8282 0.910711 21.9318 1.9352L1.94465 24.7776Z" fill="#C4C4C4"/>
</mask>
<g mask="url(#mask0_424_13)">
<path d="M23.6251 54.0001L1.52588e-05 27.0001L23.6251 0L47.2501 27.0001L23.6251 54.0001Z" fill="url(#paint0_linear_424_13)"/>
<g filter="url(#filter0_dd_424_13)">
<path d="M31.4995 0L56.2496 27.0001L31.4995 54.0001L20.5182 42.0205C19.7297 41.1602 19.7297 39.8399 20.5182 38.9797L30.1059 28.5204C30.8944 27.6602 30.8944 26.3399 30.1059 25.4797L20.5182 15.0204C19.7297 14.1602 19.7297 12.8399 20.5182 11.9797L31.4995 0Z" fill="url(#paint1_linear_424_13)"/>
</g>
</g>
<path d="M64.266 21.66C66.346 21.66 67.386 20.828 67.386 19.164C67.386 18.2973 66.9267 17.656 66.008 17.24C65.5227 16.9973 64.89 16.772 64.11 16.564C63.3473 16.356 62.706 16.148 62.186 15.94C61.6833 15.7147 61.172 15.4113 60.652 15.03C59.6293 14.2673 59.118 13.0973 59.118 11.52C59.118 9.92533 59.664 8.67733 60.756 7.776C61.8653 6.85733 63.304 6.398 65.072 6.398C66.8573 6.398 68.5127 6.75333 70.038 7.464V11.364L67.386 11.546V10.038C67.386 9.778 67.3513 9.58733 67.282 9.466C67.0913 9.13667 66.476 8.972 65.436 8.972C64.4133 8.972 63.6507 9.154 63.148 9.518C62.6627 9.882 62.42 10.4453 62.42 11.208C62.42 11.7627 62.628 12.248 63.044 12.664C63.3213 12.9413 63.7287 13.1753 64.266 13.366C64.8207 13.5393 65.4013 13.7213 66.008 13.912C66.632 14.1027 67.178 14.3107 67.646 14.536C68.1313 14.7613 68.634 15.0733 69.154 15.472C70.2113 16.252 70.74 17.4567 70.74 19.086C70.74 20.7153 70.1507 21.998 68.972 22.934C67.8107 23.87 66.268 24.338 64.344 24.338C62.4373 24.338 60.7213 23.9827 59.196 23.272V19.164L61.848 18.982V20.568C61.848 20.828 61.8827 21.0187 61.952 21.14C62.0213 21.2613 62.2293 21.3827 62.576 21.504C62.94 21.608 63.5033 21.66 64.266 21.66ZM77.252 21.088V9.284H75.224C74.8253 9.284 74.626 9.55267 74.626 10.09V11.312L71.974 11.13V6.71H85.572V11.13L82.92 11.312V10.09C82.92 9.79533 82.8767 9.58733 82.79 9.466C82.7033 9.34467 82.4953 9.284 82.166 9.284H80.398V21.712L82.452 21.79V24H75.12V21.894L76.498 21.816C77.0007 21.764 77.252 21.5213 77.252 21.088ZM85.895 21.088L90.081 8.972L88.443 8.816V6.71H94.397L99.701 21.712H99.727L101.209 21.79V24H94.501V21.894L95.489 21.816C95.7836 21.7813 95.983 21.712 96.087 21.608C96.191 21.504 96.1996 21.3133 96.113 21.036L95.567 19.424H89.483L88.703 21.712L90.263 21.79V24H84.257V21.894L85.115 21.816C85.479 21.7813 85.739 21.5387 85.895 21.088ZM92.525 9.622L90.107 17.032H94.943L92.603 9.622H92.525ZM102.174 24V21.894L103.032 21.816C103.534 21.764 103.786 21.5213 103.786 21.088V8.998L102.304 8.92V6.71H109.402C111.412 6.71 112.955 7.08267 114.03 7.828C115.104 8.57333 115.642 9.79533 115.642 11.494C115.642 12.6727 115.33 13.6433 114.706 14.406C114.099 15.1687 113.371 15.7233 112.522 16.07C113.146 16.2953 113.64 16.824 114.004 17.656L115.876 21.738L117.358 21.79V24H110.936V21.894L111.69 21.816C112.088 21.764 112.288 21.608 112.288 21.348C112.288 21.244 112.253 21.1227 112.184 20.984L110.962 18.384C110.771 17.9507 110.554 17.6473 110.312 17.474C110.086 17.2833 109.757 17.188 109.324 17.188H106.958V21.712L108.648 21.79V24H102.174ZM106.958 14.718H109.22C111.352 14.718 112.418 13.7647 112.418 11.858C112.418 10.766 112.132 10.0553 111.56 9.726C111.005 9.39667 110.104 9.232 108.856 9.232H106.958V14.718ZM63.45 43.2V31.85H61.5C61.1167 31.85 60.925 32.1083 60.925 32.625V33.8L58.375 33.625V29.375H71.45V33.625L68.9 33.8V32.625C68.9 32.3417 68.8583 32.1417 68.775 32.025C68.6917 31.9083 68.4917 31.85 68.175 31.85H66.475V43.8L68.45 43.875V46H61.4V43.975L62.725 43.9C63.2083 43.85 63.45 43.6167 63.45 43.2ZM84.5434 46H72.6684V43.975L73.4934 43.9C73.9767 43.85 74.2184 43.6167 74.2184 43.2V31.575L72.7934 31.5V29.375H84.2434V33.525L81.6934 33.7V32.7C81.6934 32.4167 81.6517 32.2167 81.5684 32.1C81.485 31.9833 81.285 31.925 80.9684 31.925H77.2684V36.2H83.0434V38.75H77.2684V43.425H81.2934C81.5934 43.425 81.785 43.3667 81.8684 43.25C81.9517 43.1167 81.9934 42.9083 81.9934 42.625V41.375L84.5434 41.55V46ZM96.4391 32.025C96.2557 31.7083 95.5724 31.55 94.3891 31.55C92.8391 31.55 91.6641 32.075 90.8641 33.125C90.0641 34.175 89.6641 35.6917 89.6641 37.675C89.6641 41.7917 91.2057 43.85 94.2891 43.85C94.3391 43.85 94.5557 43.85 94.9391 43.85C95.3391 43.85 95.7141 43.8 96.0641 43.7C96.4141 43.5833 96.6224 43.4667 96.6891 43.35C96.7557 43.2333 96.7891 43.05 96.7891 42.8V40.8L99.3391 40.975V45.3C98.0391 45.9833 96.3891 46.325 94.3891 46.325C91.8391 46.325 89.8891 45.6083 88.5391 44.175C87.2057 42.7417 86.5391 40.6083 86.5391 37.775C86.5391 36.2083 86.7641 34.8417 87.2141 33.675C87.6641 32.5083 88.2724 31.6 89.0391 30.95C90.5391 29.7 92.3224 29.075 94.3891 29.075C96.0557 29.075 97.6224 29.4167 99.0891 30.1V34.35L96.5391 34.525V32.575C96.5391 32.325 96.5057 32.1417 96.4391 32.025ZM113.053 43.075V38.75H105.978V43.8L107.428 43.875V46H101.378V43.975L102.203 43.9C102.686 43.85 102.928 43.6167 102.928 43.2V31.575L101.503 31.5V29.375H107.553V31.4L106.728 31.475C106.461 31.5083 106.27 31.5833 106.153 31.7C106.036 31.8 105.978 32 105.978 32.3V36.175H113.053V31.575L111.628 31.5V29.375H117.678V31.4L116.853 31.475C116.37 31.525 116.128 31.7917 116.128 32.275V43.8L117.553 43.875V46H111.503V43.975L112.328 43.9C112.578 43.8667 112.761 43.8 112.878 43.7C112.995 43.5833 113.053 43.375 113.053 43.075Z" fill="#EEEEEE"/>
<path opacity="0.15" d="M16.5 31.875L11.25 34.5L12.5625 29.25L8.625 24.875L14.3125 24.4375L16.5 19.625L18.6875 24.4375L24.375 24.875L20.4375 29.25L21.75 34.5L16.5 31.875Z" fill="#EEEEEE"/>
<path d="M16.5 31.875L11.25 34.5L12.5625 29.25L8.625 24.875L14.3125 24.4375L16.5 19.625L18.6875 24.4375L24.375 24.875L20.4375 29.25L21.75 34.5L16.5 31.875Z" stroke="#EEEEEE" stroke-linecap="round" stroke-linejoin="round"/>
<defs>
<filter id="filter0_dd_424_13" x="15.4268" y="-3.375" width="45.3228" height="63.0001" filterUnits="userSpaceOnUse" color-interpolation-filters="sRGB">
<feFlood flood-opacity="0" result="BackgroundImageFix"/>
<feColorMatrix in="SourceAlpha" type="matrix" values="0 0 0 0 0 0 0 0 0 0 0 0 0 0 0 0 0 0 127 0" result="hardAlpha"/>
<feOffset dy="0.21375"/>
<feGaussianBlur stdDeviation="0.21375"/>
<feColorMatrix type="matrix" values="0 0 0 0 0 0 0 0 0 0 0 0 0 0 0 0 0 0 0.24 0"/>
<feBlend mode="normal" in2="BackgroundImageFix" result="effect1_dropShadow_424_13"/>
<feColorMatrix in="SourceAlpha" type="matrix" values="0 0 0 0 0 0 0 0 0 0 0 0 0 0 0 0 0 0 127 0" result="hardAlpha"/>
<feOffset dy="1.125"/>
<feGaussianBlur stdDeviation="2.25"/>
<feColorMatrix type="matrix" values="0 0 0 0 0 0 0 0 0 0 0 0 0 0 0 0 0 0 0.32 0"/>
<feBlend mode="normal" in2="effect1_dropShadow_424_13" result="effect2_dropShadow_424_13"/>
<feBlend mode="normal" in="SourceGraphic" in2="effect2_dropShadow_424_13" result="shape"/>
</filter>
<linearGradient id="paint0_linear_424_13" x1="41.0626" y1="54.0003" x2="9.56254" y2="-23.0624" gradientUnits="userSpaceOnUse">
<stop stop-color="#742774"/>
<stop offset="1" stop-color="#A91079"/>
</linearGradient>
<linearGradient id="paint1_linear_424_13" x1="19.1251" y1="0.000137025" x2="45.0001" y2="54.0003" gradientUnits="userSpaceOnUse">
<stop stop-color="#E125A6"/>
<stop offset="1" stop-color="#A91079"/>
</linearGradient>
</defs>
</svg>
